<?xml version="1.0" encoding="utf-8"?>
<!-- Generator: Adobe Illustrator 17.1.0, SVG Export Plug-In . SVG Version: 6.00 Build 0)  -->
<!DOCTYPE svg PUBLIC "-//W3C//DTD SVG 1.1//EN" "http://www.w3.org/Graphics/SVG/1.1/DTD/svg11.dtd">
<svg version="1.1" id="Layer_1" xmlns="http://www.w3.org/2000/svg" xmlns:xlink="http://www.w3.org/1999/xlink" x="0px" y="0px"
	 viewBox="0 0 500 241.788" enable-background="new 0 0 500 241.788" xml:space="preserve">
<g>
	<path fill="none" d="M143.755,163.148c1.914-0.835,3.85-1.646,5.805-2.432c-2.142-0.353-4.548-0.768-7.175-1.247
		C142.828,160.702,143.271,161.935,143.755,163.148z"/>
	<path fill="none" d="M247.305,31.966c-17.094-0.418-30.66-5.887-43.444-15.893c-1.245,0.544-2.186,1.105-3.406,1.69
		c-4.401,9.929-8.375,20.596-11.459,31.77c14.16,6.454,29.229,10.508,45.585,12.021c4.081-1.109,8.34-1.785,12.724-1.983V31.966z"/>
	<path fill="none" d="M138.282,96.583l57.22-0.215c0.258-0.643,0.529-1.279,0.808-1.91c-18.654-3.493-36.336-8.81-52.529-15.881
		C141.468,84.361,139.63,90.382,138.282,96.583z"/>
	<path fill="none" d="M303.702,94.483c0.276,0.623,0.543,1.25,0.797,1.884l57.218,0.215c-1.34-6.182-3.172-12.183-5.474-17.95
		C340.044,85.693,322.358,91,303.702,94.483z"/>
	<path fill="none" d="M251.578,6.574v23.017c14.245-0.329,29.342-5.325,41.569-14.541C280.288,9.778,265.823,6.785,251.578,6.574z"
		/>
	<path fill="none" d="M314.541,50.37c3.246,12.089,5.696,24.73,7.269,37.64c11.727-3.088,22.944-6.967,33.53-11.583
		c-5.693-13.439-13.891-25.565-23.997-35.803c-2.291,1.585-4.657,3.109-7.078,4.545C321.114,47.038,317.864,48.762,314.541,50.37z"
		/>
	<path fill="none" d="M247.305,6.579c-15.67,0.239-28.466,3.213-41.228,8.432c12.133,9.163,25.558,14.165,41.228,14.573V6.579z"/>
	<path fill="none" d="M323.05,43.119c2.245-1.331,4.439-2.743,6.57-4.204c-7.508-7.295-16.007-13.574-25.282-18.603
		c3.673,8.77,6.875,18.059,9.567,27.722C317.027,46.509,320.083,44.879,323.05,43.119z"/>
	<path fill="none" d="M199.939,148.901c-1.282,0.223-2.561,0.454-3.835,0.695c-5.596,2.024-10.981,3.976-15.819,5.737
		c1.325,11.924,3.602,23.774,6.455,35.279c18.389-8.6,37.773-13.216,60.565-13.472v-0.264
		C227.25,175.968,209.826,165.003,199.939,148.901z"/>
	<path fill="none" d="M154.228,161.454c-3.241,1.236-6.437,2.531-9.57,3.898c5.695,13.442,13.895,25.572,24.004,35.815
		c2.315-1.602,4.704-3.143,7.15-4.593c2.615-1.552,5.295-3.01,8.029-4.382c-2.93-11.676-5.092-23.704-6.446-35.808
		c-7.672,2.798-13.627,4.995-16.277,6.026C161.118,162.411,158.625,162.121,154.228,161.454z"/>
	<path fill="none" d="M229.126,63.336c-14.433-1.853-28-5.71-40.754-11.477c-3.161,11.882-5.743,24.302-7.272,36.985
		c5.365,1.335,10.746,2.505,16.19,3.515C203.814,79.085,215.201,68.64,229.126,63.336z"/>
	<path fill="none" d="M322.607,156.386c-1.355,12.102-3.515,24.129-6.445,35.804c2.752,1.38,5.449,2.849,8.08,4.413
		c2.432,1.444,4.798,2.977,7.095,4.566c10.112-10.241,18.312-22.374,24.007-35.819c-3.132-1.367-6.326-2.661-9.566-3.896
		c-4.402,0.667-6.897,0.957-6.897,0.957C336.232,161.38,330.278,159.184,322.607,156.386z"/>
	<path fill="none" d="M299.966,149.057c-10.089,16.315-27.931,27.32-48.388,27.86v0.22c21.367,0.222,42.767,4.841,61.224,13.474
		c2.873-11.579,5.004-23.503,6.31-35.498c-4.39-1.597-9.213-3.346-14.22-5.158C303.258,149.643,301.616,149.342,299.966,149.057z"/>
	<path fill="none" d="M310.586,49.589c-3.088-11.193-6.871-21.88-11.279-31.827c-1.189-0.571-2.395-1.117-3.604-1.648
		c-12.878,10.062-28.456,15.521-44.125,15.862h-0.001v27.557c4.65,0.123,9.164,0.784,13.484,1.929
		C280.82,59.888,296.725,55.888,310.586,49.589z"/>
	<path fill="none" d="M302.648,92.234c5.297-0.972,10.51-2.089,15.605-3.353c-1.527-12.677-3.887-25.088-7.041-36.963
		c-12.429,5.603-26.548,9.406-40.645,11.301C284.588,68.469,296.066,78.922,302.648,92.234z"/>
	<path fill="none" d="M186.116,47.971c2.688-9.64,5.884-18.909,9.55-27.661c-9.25,5.017-17.729,11.275-25.223,18.545
		c2.146,1.473,4.35,2.894,6.61,4.236C179.994,44.837,183.022,46.456,186.116,47.971z"/>
	<path fill="none" d="M251.578,235.213c14.245-0.212,28.702-3.203,41.558-8.472c-12.219-9.231-27.313-14.245-41.558-14.59V235.213z"
		/>
	<path fill="none" d="M177.028,198.623c-2.27,1.347-4.487,2.774-6.641,4.254c6.608,6.419,13.983,12.048,21.979,16.732
		c-3.029-8.071-5.669-16.462-7.909-25.051C181.93,195.838,179.45,197.187,177.028,198.623z"/>
	<path fill="none" d="M247.305,235.207v-23.051c-15.67,0.395-29.158,5.403-41.312,14.587
		C218.777,231.982,231.635,234.968,247.305,235.207z"/>
	<path fill="none" d="M315.547,194.556c-2.24,8.589-4.881,16.98-7.909,25.054c7.994-4.688,15.37-10.317,21.979-16.736
		c-2.137-1.466-4.336-2.882-6.591-4.223C320.588,197.205,318.09,195.847,315.547,194.556z"/>
	<path fill="none" d="M251.578,179.518v30.251c15.67,0.354,31.231,5.829,44.104,15.909c2.385-1.046,4.758-2.168,7.056-3.369
		c3.714-9.373,6.874-19.22,9.485-29.347C293.981,184.353,272.946,179.743,251.578,179.518z"/>
	<path fill="none" d="M187.341,192.964c2.614,10.127,5.795,19.971,9.51,29.347c2.297,1.2,4.638,2.321,7.024,3.367
		c12.806-10.024,26.336-15.497,43.43-15.903l-0.001-30.252C224.512,179.779,205.515,184.386,187.341,192.964z"/>
	<path fill="none" d="M357.617,159.469c-2.624,0.479-5.03,0.894-7.171,1.246c1.953,0.786,3.888,1.595,5.801,2.43
		C356.731,161.933,357.174,160.701,357.617,159.469z"/>
	<path fill="none" d="M185.477,50.307c-3.294-1.599-6.518-3.311-9.642-5.167c-2.437-1.447-4.81-2.985-7.115-4.581
		c-10.119,10.239-18.329,22.37-24.034,35.812c10.579,4.623,21.791,8.509,33.511,11.6C179.773,75.055,182.227,62.404,185.477,50.307z
		"/>
	<path fill="#494F55" d="M196.103,149.596c1.274-0.241,2.553-0.471,3.835-0.695c-0.116-0.189-0.237-0.375-0.351-0.565
		C198.419,148.758,197.257,149.178,196.103,149.596z"/>
	<path fill="#494F55" d="M300.413,148.336c-0.145,0.243-0.299,0.48-0.447,0.721c1.651,0.285,3.292,0.585,4.926,0.898
		C303.412,149.42,301.918,148.88,300.413,148.336z"/>
	<path fill="#494F55" d="M312.124,124.137l112.557,17.534c13.635-4.93,27.458-10.92,40.28-18.156l-149.077-9.802L312.124,124.137z"
		/>
	<path fill="#494F55" d="M311.529,125.786l-4.074,11.294l78.334,16.165l-0.036,0.167c10.425-2.593,21.885-5.843,33.602-9.864
		l-107.973-16.824L311.529,125.786z"/>
	<path fill="#494F55" d="M192.547,137.08l-4.079-11.299l0.15,0.943L80.647,143.548c11.716,4.022,23.172,7.271,33.6,9.864
		l-0.031-0.167L192.547,137.08z"/>
	<path fill="#494F55" d="M184.117,113.713l-149.079,9.802c12.824,7.235,26.643,13.225,40.277,18.156l112.561-17.534L184.117,113.713
		z"/>
	<path fill="#494F55" d="M250.073,99.353c-0.13,1.313-0.501,2.71-1.189,4.176l0.249-0.409h5.458l2.217-3.845
		c-2.238,0.049-4.482,0.078-6.734,0.078C250.074,99.353,250.073,99.353,250.073,99.353z"/>
	<path fill="#494F55" d="M304.891,149.956c5.008,1.812,9.83,3.56,14.22,5.158c0.071-0.656,0.151-1.312,0.217-1.968
		C314.625,151.954,309.798,150.896,304.891,149.956z"/>
	<path fill="#494F55" d="M243.605,112.827c2.292-0.426,4.737-1.416,7.133-3.051l2.169-3.749h-5.388L243.605,112.827z"/>
	<path fill="#494F55" d="M322.607,156.386c7.671,2.798,13.625,4.994,16.274,6.025c0,0,2.496-0.29,6.897-0.957
		c-7.381-2.815-15.026-5.293-22.908-7.411C322.789,154.825,322.695,155.605,322.607,156.386z"/>
	<path fill="#494F55" d="M227.859,109.686l-9.533,16.563c-5.286,9.18,5.523,10.458,10.229,2.323l7.208-12.554
		C232.273,114.914,229.43,112.705,227.859,109.686z"/>
	<g>
		<path fill="#494F55" d="M235.44,96.647c-0.553,0.632-1.091,1.382-1.602,2.26c-0.095,0.163-0.191,0.32-0.284,0.492
			c-3.605,6.743-0.933,11.798,4.182,13.249l5.869-10.172c0.647-1.126,1.004-2.199,1.137-3.185c0.117-0.873,0.056-1.675-0.153-2.38
			C243.577,93.502,239.178,92.383,235.44,96.647z"/>
		<path fill="#494F55" d="M368.415,96.608C357.14,41.55,308.344,0,250,0c-58.342,0-107.134,41.55-118.408,96.608L0,97.103
			c8.722,9.165,19.327,17.116,30.885,24.007l155.063-10.2l6.149,17.058c0.656,3.912,1.698,7.691,3.085,11.299L119.96,154.79
			c5.39,1.266,10.436,2.347,15.026,3.264c15.716,48.531,61.317,83.734,115.014,83.734c53.699,0,99.301-35.203,115.016-83.734
			c4.59-0.917,9.635-1.998,15.025-3.264l-75.22-15.523c1.387-3.607,2.427-7.387,3.078-11.299l6.156-17.058l155.062,10.2
			c11.556-6.89,22.161-14.842,30.883-24.007L368.415,96.608z M355.34,76.427c-10.586,4.616-21.803,8.495-33.53,11.583
			c-1.573-12.91-4.023-25.551-7.269-37.64c3.323-1.608,6.573-3.332,9.724-5.201c2.421-1.436,4.787-2.96,7.078-4.545
			C341.449,50.862,349.647,62.988,355.34,76.427z M270.567,63.219c14.097-1.895,28.217-5.698,40.645-11.301
			c3.154,11.875,5.514,24.286,7.041,36.963c-5.095,1.264-10.308,2.381-15.605,3.353C296.066,78.922,284.588,68.469,270.567,63.219z
			 M329.62,38.915c-2.131,1.461-4.325,2.873-6.57,4.204c-2.967,1.76-6.023,3.39-9.145,4.915c-2.692-9.663-5.894-18.952-9.567-27.722
			C313.613,25.341,322.112,31.62,329.62,38.915z M251.578,6.574c14.245,0.211,28.71,3.204,41.569,8.476
			c-12.227,9.216-27.324,14.212-41.569,14.541V6.574z M251.577,31.976L251.577,31.976c15.67-0.341,31.248-5.8,44.126-15.862
			c1.209,0.531,2.415,1.077,3.604,1.648c4.408,9.947,8.191,20.634,11.279,31.827c-13.861,6.299-29.766,10.299-45.525,11.873
			c-4.319-1.144-8.834-1.806-13.484-1.929V31.976z M247.305,6.579v23.005c-15.67-0.408-29.095-5.41-41.228-14.573
			C218.839,9.792,231.635,6.818,247.305,6.579z M203.861,16.073c12.784,10.006,26.35,15.475,43.444,15.893V59.57
			c-4.384,0.198-8.643,0.875-12.724,1.983c-16.356-1.513-31.425-5.567-45.585-12.021c3.084-11.174,7.058-21.841,11.459-31.77
			C201.675,17.178,202.616,16.617,203.861,16.073z M229.126,63.336c-13.925,5.304-25.312,15.749-31.836,29.023
			c-5.443-1.01-10.824-2.181-16.19-3.515c1.529-12.683,4.111-25.103,7.272-36.985C201.126,57.626,214.693,61.483,229.126,63.336z
			 M195.666,20.31c-3.666,8.752-6.862,18.021-9.55,27.661c-3.094-1.515-6.122-3.134-9.063-4.88c-2.26-1.342-4.464-2.763-6.61-4.236
			C177.937,31.585,186.416,25.327,195.666,20.31z M168.72,40.559c2.305,1.596,4.678,3.134,7.115,4.581
			c3.124,1.856,6.348,3.568,9.642,5.167c-3.25,12.097-5.704,24.748-7.28,37.664c-11.72-3.091-22.932-6.977-33.511-11.6
			C150.391,62.929,158.601,50.798,168.72,40.559z M138.282,96.583c1.348-6.201,3.187-12.222,5.499-18.006
			c16.194,7.071,33.875,12.388,52.529,15.881c-0.28,0.631-0.55,1.267-0.808,1.91L138.282,96.583z M142.385,159.469
			c2.626,0.479,5.033,0.894,7.175,1.247c-1.955,0.787-3.891,1.597-5.805,2.432C143.271,161.935,142.828,160.702,142.385,159.469z
			 M144.658,165.353c3.133-1.368,6.328-2.662,9.57-3.898c4.398,0.667,6.89,0.957,6.89,0.957c2.65-1.031,8.605-3.228,16.277-6.026
			c1.354,12.104,3.515,24.132,6.446,35.808c-2.734,1.372-5.414,2.83-8.029,4.382c-2.446,1.45-4.835,2.991-7.15,4.593
			C158.553,190.925,150.353,178.795,144.658,165.353z M170.387,202.877c2.154-1.48,4.371-2.907,6.641-4.254
			c2.422-1.436,4.902-2.785,7.429-4.065c2.24,8.589,4.88,16.98,7.909,25.051C184.37,214.925,176.995,209.296,170.387,202.877z
			 M247.305,235.207c-15.67-0.239-28.528-3.225-41.312-8.464c12.154-9.184,25.642-14.192,41.312-14.587V235.207z M203.875,225.678
			c-2.386-1.046-4.727-2.167-7.024-3.367c-3.715-9.376-6.896-19.22-9.51-29.347c18.174-8.578,37.171-13.185,59.963-13.441
			l0.001,30.252C230.211,210.181,216.681,215.654,203.875,225.678z M247.305,177.139c-22.792,0.256-42.176,4.872-60.565,13.472
			c-2.854-11.505-5.13-23.355-6.455-35.279c4.838-1.761,10.222-3.713,15.819-5.737c1.154-0.417,2.316-0.837,3.485-1.26
			c0.114,0.19,0.235,0.376,0.351,0.565c9.888,16.102,27.311,27.067,47.366,27.974V177.139z M249.829,147.862h-2.524h-3.577
			l1.753-3.042l1.38-2.394l5.826-10.108c-2.663,2.029-5.32,3.341-7.8,3.341c-4.878,0-6.682-4.124-4.125-8.601l6.544-11.332
			c-2.04,0.712-4.074,1.081-6.027,1.103l-6.448,11.276c-10.052,17.433-30.393,11.448-20.687-5.343l9.647-16.735h2.963
			c-0.299-2.289,0.09-4.791,1.371-7.467c0.216-0.452,0.45-0.907,0.719-1.369c0.174-0.303,0.357-0.581,0.538-0.865
			c5.247-8.211,13.583-8.462,17.922-4.502c1.947,1.777,3.078,4.4,2.769,7.529c0,0,0.001,0,0.001,0c2.252,0,4.496-0.029,6.734-0.078
			l1.406-2.439l2.074-3.598h6.044l-1.942,3.371l-1.418,2.46l-2.334,4.051h4.996l-1.745,2.907h-4.936l-12.961,22.603
			c-1.392,2.381-0.64,3.312,0.698,3.312c2.672,0,6.914-4.008,11.272-9.066l0.41-0.466c0.005,0,0.011,0.011,0.015,0.011l9.454-16.394
			h6.044l-1.219,2.087c6.158-5.517,15.28-2.323,9.647,7.267l-6.682,11.447c-0.757,1.277-1.512,2.962-2.501,4.534
			c3.662-1.277,7.673-4.534,11.043-8.486l0.403-0.466c0.875,0.236,1.922,1.162,2.267,2.097c-4.936,5.752-10.691,10.98-19.467,11.154
			h-0.347c-5.523,0-6.626-4.879-6.626-4.879l3.432-1.628c1.101,2.268,3.366,1.745,4.356,0l9.123-15.809
			c1.571-2.726-2.673-6.098-9.412,3.083l-14.946,25.995l-1.363,2.37l-0.015,0.027L249.829,147.862z M251.578,235.213v-23.062
			c14.245,0.345,29.339,5.359,41.558,14.59C280.28,232.01,265.823,235.001,251.578,235.213z M295.682,225.678
			c-12.873-10.08-28.434-15.555-44.104-15.909v-30.251c21.368,0.225,42.403,4.835,60.645,13.444
			c-2.611,10.127-5.771,19.974-9.485,29.347C300.44,223.51,298.067,224.632,295.682,225.678z M307.638,219.61
			c3.028-8.074,5.669-16.465,7.909-25.054c2.543,1.291,5.041,2.649,7.479,4.095c2.255,1.341,4.454,2.757,6.591,4.223
			C323.008,209.293,315.632,214.922,307.638,219.61z M357.617,159.469c-0.443,1.232-0.886,2.464-1.37,3.676
			c-1.913-0.835-3.847-1.644-5.801-2.43C352.587,160.363,354.992,159.948,357.617,159.469z M322.87,154.043
			c7.882,2.117,15.528,4.596,22.908,7.411c3.24,1.235,6.434,2.529,9.566,3.896c-5.695,13.445-13.895,25.578-24.007,35.819
			c-2.297-1.589-4.663-3.122-7.095-4.566c-2.631-1.564-5.328-3.033-8.08-4.413c2.93-11.674,5.09-23.701,6.445-35.804
			C322.695,155.605,322.789,154.825,322.87,154.043z M304.891,149.956c4.906,0.94,9.734,1.999,14.438,3.19
			c-0.066,0.657-0.146,1.312-0.217,1.968c-1.305,11.995-3.437,23.919-6.31,35.498c-18.457-8.633-39.857-13.252-61.224-13.474v-0.22
			c20.456-0.54,38.299-11.544,48.388-27.86c0.149-0.241,0.302-0.478,0.447-0.721C301.918,148.88,303.412,149.42,304.891,149.956z
			 M304.499,96.367c-0.254-0.634-0.522-1.261-0.797-1.884c18.656-3.483,36.342-8.791,52.541-15.851
			c2.302,5.767,4.133,11.768,5.474,17.95L304.499,96.367z"/>
	</g>
	<path fill="#494F55" d="M251.578,144.793v0.027l0.015-0.027C251.588,144.793,251.583,144.793,251.578,144.793z"/>
	<polygon fill="#494F55" points="247.305,96.946 247.304,96.946 247.304,96.946 	"/>
</g>
</svg>
